<?xml version="1.0" encoding="utf-8"?>
<!-- Generator: Adobe Illustrator 22.1.0, SVG Export Plug-In . SVG Version: 6.00 Build 0)  -->
<svg version="1.1" id="图层_1" xmlns="http://www.w3.org/2000/svg" xmlns:xlink="http://www.w3.org/1999/xlink" x="0px" y="0px"
	 viewBox="0 0 13 13" style="enable-background:new 0 0 13 13;" xml:space="preserve">
<style type="text/css">
	.st0{fill:#999999;}
</style>
<title>分组 3 copy 5</title>
<desc>Created with Sketch.</desc>
<g id="画板-copy-3" transform="translate(-575.000000, -366.000000)">
	<g id="分组-3-copy-5" transform="translate(576.000000, 366.846302)">
		<path class="st0" d="M5.5,11.5c-3.3,0-6-2.7-6-6c0-3.3,2.7-6,6-6s6,2.7,6,6C11.5,8.8,8.8,11.5,5.5,11.5z M5.5,0.5
			c-2.8,0-5,2.2-5,5c0,2.8,2.2,5,5,5s5-2.2,5-5C10.5,2.7,8.3,0.5,5.5,0.5z"/>
		<path class="st0" d="M9,6.3H5.3c-0.3,0-0.5-0.2-0.5-0.5V2.2c0-0.3,0.2-0.5,0.5-0.5s0.5,0.2,0.5,0.5v3.1H9c0.3,0,0.5,0.2,0.5,0.5
			S9.3,6.3,9,6.3z"/>
	</g>
</g>
</svg>
